<?xml version="1.0" encoding="UTF-8"?>
<svg xmlns="http://www.w3.org/2000/svg" viewBox="0 0 288 288">
  <defs>
    <style>
      .cls-1 {
        fill: none;
      }

      .cls-2 {
        fill: #010101;
      }

      .cls-3 {
        fill: #ef4236;
      }
    </style>
  </defs>
  <g id="Layer_1" data-name="Layer 1">
    <path class="cls-3" d="M22.96,143.23l122.01,122.01,122.01-122.01L144.97,21.22,22.96,143.23ZM247.64,143.23c-8.46,8.45-94.22,94.22-102.68,102.68-8.46-8.46-94.22-94.23-102.68-102.68,8.45-8.46,94.22-94.22,102.68-102.68,8.45,8.45,94.22,94.22,102.68,102.68Z"/>
  </g>
  <g id="Layer_2" data-name="Layer 2">
    <path class="cls-1" d="M91.57,137.36c-.07-.13-.45-.38-.7-.55.17.68.11,1.25.07,1.67-.04.39-.04.49,0,.57.1.17.26.37.46.58.02-.17.05-.35.07-.54.08-.57.2-1.42.09-1.73Z"/>
    <path class="cls-1" d="M134.61,97.72c-3.53.55-33.55,5.32-33.55,5.32l.59,4.29s30.31-2.49,33.78-2.66c3.47-.17,5.11-1.61,5.15-3.83.03-2.22-2.44-3.66-5.97-3.12Z"/>
    <path class="cls-1" d="M184.89,140.7c-1.93-.28-3.81-.99-5.34-2.19-1.43.45-2.93.5-4.17.51-.34,0-.74.01-1.07.03.4.63,1.49,1.64,3.6,1.68l6.87.1s.07-.09.11-.13Z"/>
    <path class="cls-1" d="M153.21,104.05c3.46.27,36.21,3.6,36.21,3.6l.71-4.27s-31.63-5.99-35.14-6.62c-3.94-.71-6.74,1.37-6.77,3.59-.03,2.22,1.52,3.43,4.99,3.7Z"/>
    <path class="cls-1" d="M41.93,141.13c8.32,8.56,92.72,95.39,101.04,103.95,8.56-8.32,95.39-92.72,103.95-101.04-8.32-8.56-92.72-95.39-101.04-103.95-8.56,8.32-95.39,92.72-103.95,101.04ZM84.45,125.01l.78.9c1.05,1.17,2.36,2.63,2.48,4.34.07.91-.09,1.58-.21,2.07-.14.58-.16.71,0,1.05.12.25.36.39.9.67.11.06.23.12.36.19,0-.04-.01-.08-.02-.13-.1-.91.14-1.62.36-2.25.23-.67.44-1.3.39-2.39l2.6-.12c0,.19.01.37,0,.54-.02,1.27-.31,2.14-.54,2.8-.15.45-.24.71-.24.98,0,.05,0,.1,0,.16.02.21.54.55.91.79.64.42,1.43.94,1.76,1.84.16.45.22.93.21,1.41,0,.54-.09,1.08-.16,1.59-.04.3-.1.73-.11.96,0,.03,0,.06,0,.08.18.52.94,1.72,2.03,2.95l-1.95,1.72c-.5-.57-1.06-1.27-1.53-1.97l-.19.36c-.86-.44-2.86-1.89-3.62-3.23-.47-.82-.39-1.57-.33-2.12.05-.45.07-.72-.13-1.12-.17-.32-.47-.49-1-.76-.65-.34-1.55-.8-2.06-1.85-.57-1.18-.36-2.07-.19-2.78.1-.42.18-.78.15-1.28-.06-.83-1.04-1.92-1.83-2.79l-.88-1.01,2.04-1.62ZM132.04,156.96l-67.46-.96.18-12.37,27.07.38c1.06,2.14,3.33,3.48,7.09,3.53,3.8.05,7.07-1.19,8.77-3.3l24.53.35-.18,12.37ZM103.74,138.07c-.1-.43-.23-.99-.22-1.61,0-.48.1-.99.34-1.52.48-1.03,1.2-1.58,1.78-2.02.41-.31.65-.5.77-.75.01-.03.02-.08.02-.13,0-.31-.14-.91-.24-1.33-.18-.74-.37-1.55-.36-2.4,0-.27.03-.55.08-.83l2.55.49c-.11.59.07,1.38.25,2.14.26,1.08.52,2.19.03,3.2-.4.81-1.02,1.29-1.53,1.67-.44.34-.79.6-1,1.05-.18.38-.1.8.05,1.43.14.61.31,1.3.06,2.03-.04.11-.08.25-.15.41.24-.27.48-.62.71-1.06.08-.18.13-.76.17-1.15.08-.85.16-1.72.54-2.39.43-.75,1.18-1.07,1.85-1.35.43-.18.92-.39,1.04-.62.17-.34.14-.77.06-1.52-.07-.62-.14-1.33-.06-2.17.22-2.12,2.85-4.47,3.38-4.92l1.69,1.98c-1.14.98-2.41,2.5-2.48,3.21-.01.14-.02.28-.02.42,0,.41.03.8.08,1.21.04.39.09.8.08,1.22,0,.57-.11,1.16-.42,1.76-.55,1.07-1.58,1.5-2.34,1.82-.2.08-.48.2-.61.29-.1.25-.16.9-.2,1.31-.07.78-.14,1.52-.44,2.09-1.31,2.52-2.89,3.03-3.99,3.02l.02-1.38c-.45.62-1.07,1.29-1.93,1.87l-1.46-2.15c1.24-.84,1.72-1.88,2-2.69,0-.12-.07-.42-.12-.62ZM136.64,107.37c-4.07.59-29.86,4.69-31.92,4.99-2.06.3-2.62,1.05-2.62,1.7,0,.65,1.27,2.21,1.23,4.89-.03,1.73-.54,4-2.82,3.97-.02,0-.03,0-.05,0,.33,4.2,1.93,8.85,1.91,9.95-.02,1.24-.68,4.26-3.02,4.22-2.34-.03-2.78-2.72-2.75-4.72.03-1.82,2.13-5.16,2.56-9.86-1.2-.8-1.58-2.58-1.57-3.53.04-2.63,2.46-4.4,2.05-7.92-.12-.98-2.17-14.15-2.17-14.15,1.51.73,2.23,3.75,5.56,3.17,2.26-.4,25.65-4.27,30.78-5.01,5.13-.74,8.75,1.59,9.35,5.01.6,3.42-2.45,6.71-6.52,7.3ZM203.51,122.47c.28-.07.28-.07.46-.4.3-.54.25-.9.1-1.66-.11-.58-.25-1.3-.1-2.15.24-1.42,1.15-2.33,2.03-3.21.41-.4.82-.82,1.23-1.33l2.02,1.64c-.49.61-.98,1.1-1.41,1.53-.79.79-1.21,1.23-1.31,1.81-.07.38,0,.75.1,1.22.16.85.39,2.02-.38,3.41-.68,1.22-1.45,1.49-2.12,1.66-.29.07-.36.09-.62.47-.35.54-.35.71-.33,1.12.02.5.04,1.19-.43,2.21-1.15,2.47-2.74,3.28-3.87,3.53l-.55-2.54c1.01-.22,1.69-1.26,2.07-2.09.21-.45.2-.65.19-1.01-.03-.74.01-1.5.75-2.63.75-1.14,1.51-1.41,2.17-1.57ZM194.38,129.05c1.03-.88,1.07-.91,1.46-2.12.22-.67.19-1.02.14-1.55-.05-.6-.13-1.35.19-2.45.4-1.41,1.27-1.87,1.8-2.14.38-.2.48-.25.61-.75.16-.59.05-.83-.19-1.37-.3-.68-.71-1.6-.41-3.1l2.55.5c-.14.69,0,1.01.24,1.55.3.68.72,1.62.32,3.09-.43,1.61-1.37,2.09-1.93,2.38-.37.19-.4.21-.49.53-.18.64-.15,1-.1,1.51.06.63.13,1.42-.25,2.6-.59,1.82-.98,2.21-2.25,3.29l-.59.51-1.71-1.96.61-.53ZM198.96,139.73c.67.42,1.5.94,1.7,1.03.65.24,4.76.75,8.2.8l-.04,2.6c-3.04-.04-7.95-.52-9.12-.99-.38-.15-.96-.51-2.12-1.24-1.33-.84-3.25-2.04-4.63-2.65-.84.53-1.83.93-2.91,1.19v.43s.07,0,.07,0l4.42.85-7.79,1.7h-.37c-.03.13-.04.28-.04.44-.05,3.64,4.65,4.85,7.46,5.24l-.36,2.57c-8.51-1.2-9.73-5.43-9.69-7.85,0-.15.01-.3.03-.44l-15.56-.22c-1.86-.03-2.31.5-2.31.99,0,.49.35.95,1.51.96l11.43.16-.04,2.6-16.89-.24c-1.12-.02-1.6.84-1.61,1.18.02.32.73,1.28,1.7,1.3l4.75.07v.02c.18,0,.37-.01.58,0l11.43.16-.04,2.6-11.43-.16c-.98-.01-1.98.17-1.98.54,0,.43.86,1.28,2.47,1.3l4.69.07v.02c.17,0,.34-.01.51,0l7.96.11,2.47,2.63-10.47-.15c-1.83-.03-2.63.62-2.69.78,0,.31.67.95,2.33,1.11,2.29.22,12.48.69,14.2.71,1.83.02,7.73-.15,10.63-.95.84-.23,1.57-.56,2.35-.91,1.96-.88,4.18-1.88,8.77-1.81l-.04,2.6c-4.02-.06-5.88.78-7.68,1.58-.83.37-1.69.76-2.72,1.05-3.45.95-9.84,1.07-11.36,1.05-1.87-.03-12.06-.49-14.42-.72-3.26-.32-4.7-2.11-4.67-3.74,0-.29.06-.56.15-.82h-.06c-3.21-.05-5.06-1.81-5.03-3.94,0-.16.02-.35.06-.56h-.81c-2.76-.05-4.29-2.19-4.26-3.94.03-1.84,1.74-3.78,4.24-3.75l1.52.02c-.08-.36-.11-.69-.11-.95.01-.94.52-3.61,4.88-3.54l4.03.06c-.11-.16-.22-.33-.3-.49-.53-1-.56-1.99-.09-2.71.66-.99,1.9-1.01,3.48-1.03,1.24-.02,2.79-.04,3.96-.56l.79-.35.63.59c2.99,2.79,8.69,2.71,11.27.69l.56-.44.67.23c1.63.57,4.01,2.06,5.74,3.14ZM175.12,123.92c.18.43.29.47.73.64.59.23,1.5.58,2.08,1.88.33.74.43,1.3.42,1.77,0,.31-.05.58-.11.84l-.04.17.02.06c.52,1.24,1.34,2.28,1.86,2.36l-.41,2.57c-2.12-.34-3.39-2.85-3.84-3.91-.35-.82-.21-1.44-.13-1.81.06-.28.1-.44-.15-.98-.14-.32-.22-.35-.63-.51-.63-.24-1.58-.61-2.19-2.04-.56-1.3-.37-2.22-.23-2.89.11-.52.18-.87-.04-1.53-.41-1.26-.73-1.62-1.37-2.34l-.8-.94,2.03-1.63.72.84c.71.8,1.33,1.49,1.91,3.27.21.65.27,1.19.26,1.65,0,.48-.09.88-.16,1.21-.05.25-.09.44-.09.62,0,.21.04.42.17.71ZM177.64,117.48l2.58-.27c.14,1.34-.2,2.27-.48,3.01-.23.62-.33.93-.25,1.34.04.21.19.33.72.66.7.44,1.75,1.11,2.05,2.65.25,1.23.07,1.89-.13,2.46-.08.24-.09.26-.01.55.29,1.07.42,1.26,2.04,2.92l-1.86,1.81c-1.71-1.76-2.22-2.34-2.69-4.06-.27-.98-.12-1.55.07-2.09.1-.27.16-.45.03-1.09-.08-.41-.28-.57-.9-.96-.67-.43-1.59-1.01-1.87-2.32-.25-1.17.09-2.06.35-2.78.23-.62.41-1.11.33-1.84ZM145.64,99.36c.7-3.4,4.2-6.02,9.31-5.13,5.11.89,31.14,6.07,33.39,6.54,3.31.68,3.75-1.93,5.28-2.61,0,0-2.05,12.72-2.2,13.69-.52,3.51,1.42,2.8,1.37,6.52-.02,1.59-.6,3.33-2.01,3.93.53,3.69,1.87,6.26,1.85,7.84-.03,2-.8,4.74-3.14,4.7-2.34-.03-2.66-3.13-2.65-4.37.01-.95,1.57-4.4,2.32-8-1.86-.38-2.08-2.92-2.05-4.53.03-2.11,1.3-3.29,1.3-3.61,0-.32-.95-1.11-2.12-1.31-2.05-.36-30.45-5.51-34.5-6.21-4.05-.71-6.85-4.03-6.15-7.44Z"/>
    <path class="cls-2" d="M98.93,147.55c-3.76-.05-6.04-1.39-7.09-3.53l-27.07-.38-.18,12.37,67.46.96.18-12.37-24.53-.35c-1.7,2.11-4.97,3.36-8.77,3.3Z"/>
    <path class="cls-2" d="M105.22,143.05c1.1.02,2.69-.5,3.99-3.02.3-.58.37-1.31.44-2.09.04-.41.1-1.06.2-1.31.12-.08.41-.2.61-.29.75-.32,1.78-.75,2.34-1.82.31-.6.41-1.19.42-1.76,0-.42-.04-.84-.08-1.22-.04-.41-.08-.8-.08-1.21,0-.14,0-.28.02-.42.07-.71,1.34-2.23,2.48-3.21l-1.69-1.98c-.53.45-3.16,2.8-3.38,4.92-.08.84,0,1.54.06,2.17.08.74.11,1.18-.06,1.52-.12.23-.61.44-1.04.62-.67.28-1.42.6-1.85,1.35-.38.67-.46,1.54-.54,2.39-.04.39-.09.98-.17,1.15-.23.44-.47.8-.71,1.06-.17.45-.46,1.08-.95,1.76l-.02,1.38Z"/>
    <path class="cls-2" d="M101.86,141.39l1.46,2.15c.86-.58,1.48-1.24,1.93-1.87.49-.68.78-1.32.95-1.76.06-.17.11-.31.15-.41.24-.72.08-1.41-.06-2.03-.15-.64-.23-1.05-.05-1.43.21-.45.56-.72,1-1.05.5-.38,1.13-.86,1.53-1.67.49-1,.23-2.12-.03-3.2-.18-.76-.36-1.54-.25-2.14l-2.55-.49c-.05.28-.08.55-.08.83-.01.85.18,1.66.36,2.4.1.42.24,1.02.24,1.33,0,.05,0,.1-.02.13-.12.24-.36.43-.77.75-.58.44-1.3.99-1.78,2.02-.25.53-.34,1.05-.34,1.52,0,.62.12,1.18.22,1.61.05.2.12.5.12.62-.28.82-.76,1.85-2,2.69Z"/>
    <path class="cls-2" d="M90.52,135.9c.17.32.27.63.35.91.26.17.63.42.7.55.11.3-.01,1.16-.09,1.73-.03.19-.05.37-.07.54.61.63,1.58,1.36,2.1,1.63l-1.01,1.95c.48.7,1.03,1.4,1.53,1.97l1.95-1.72c-1.09-1.23-1.85-2.43-2.03-2.95,0-.02,0-.05,0-.08,0-.23.06-.66.11-.96.07-.51.15-1.05.16-1.59,0-.49-.04-.97-.21-1.41-.33-.9-1.12-1.42-1.76-1.84-.38-.25-.89-.59-.91-.79,0-.05,0-.11,0-.16,0-.26.09-.53.24-.98.22-.66.52-1.53.54-2.8,0-.17,0-.35,0-.54l-2.6.12c.05,1.08-.16,1.72-.39,2.39-.21.63-.46,1.35-.36,2.25,0,.05.01.09.02.13.6.33,1.29.8,1.76,1.67Z"/>
    <path class="cls-2" d="M85.12,130.44c.04.51-.05.87-.15,1.28-.17.71-.38,1.59.19,2.78.51,1.05,1.4,1.52,2.06,1.85.53.27.84.44,1,.76.21.4.18.67.13,1.12-.06.55-.13,1.3.33,2.12.76,1.34,2.77,2.78,3.62,3.23l.19-.36,1.01-1.95c-.52-.27-1.49-1-2.1-1.63-.2-.21-.37-.41-.46-.58-.05-.08-.05-.17,0-.57.04-.42.1-.99-.07-1.67-.07-.29-.18-.59-.35-.91-.46-.88-1.16-1.35-1.76-1.67-.12-.07-.25-.13-.36-.19-.55-.28-.78-.42-.9-.67-.16-.34-.14-.47,0-1.05.12-.49.28-1.16.21-2.07-.12-1.72-1.43-3.17-2.48-4.34l-.78-.9-2.04,1.62.88,1.01c.79.88,1.76,1.96,1.83,2.79Z"/>
    <path class="cls-2" d="M96.6,132.36c-.03,1.99.42,4.69,2.75,4.72,2.34.03,3-2.98,3.02-4.22.02-1.09-1.58-5.75-1.91-9.95-.51-.01-.95-.17-1.31-.41-.43,4.7-2.53,8.04-2.56,9.86Z"/>
    <path class="cls-2" d="M133.81,95.06c-5.13.74-28.52,4.61-30.78,5.01-3.33.59-4.05-2.44-5.56-3.17,0,0,2.05,13.18,2.17,14.15.42,3.52-2.01,5.29-2.05,7.92-.01.95.37,2.73,1.57,3.53.36.24.79.4,1.31.41.02,0,.03,0,.05,0,2.27.03,2.79-2.23,2.82-3.97.04-2.68-1.24-4.24-1.23-4.89,0-.65.56-1.4,2.62-1.7,2.06-.29,27.85-4.4,31.92-4.99,4.07-.59,7.12-3.88,6.52-7.3-.6-3.42-4.22-5.75-9.35-5.01ZM135.43,104.67c-3.47.17-33.78,2.66-33.78,2.66l-.59-4.29s30.02-4.77,33.55-5.32c3.53-.54,6,.9,5.97,3.12-.03,2.22-1.68,3.66-5.15,3.83Z"/>
    <path class="cls-2" d="M189.16,122.46c-.75,3.6-2.31,7.05-2.32,8-.02,1.24.31,4.34,2.65,4.37,2.34.03,3.11-2.71,3.14-4.7.02-1.58-1.32-4.15-1.85-7.84-.34.14-.73.22-1.17.22-.16,0-.31-.02-.45-.05Z"/>
    <path class="cls-2" d="M151.79,106.8c4.05.71,32.45,5.85,34.5,6.21,1.17.2,2.12.99,2.12,1.31,0,.32-1.28,1.5-1.3,3.61-.02,1.61.19,4.15,2.05,4.53.14.03.29.05.45.05.44,0,.83-.07,1.17-.22,1.41-.6,1.99-2.34,2.01-3.93.05-3.71-1.89-3.01-1.37-6.52.14-.97,2.2-13.69,2.2-13.69-1.53.68-1.97,3.3-5.28,2.61-2.25-.46-28.28-5.65-33.39-6.54-5.11-.89-8.61,1.73-9.31,5.13-.7,3.4,2.1,6.73,6.15,7.44ZM154.99,96.77c3.52.63,35.14,6.62,35.14,6.62l-.71,4.27s-32.75-3.34-36.21-3.6c-3.46-.27-5.02-1.48-4.99-3.7.03-2.22,2.82-4.29,6.77-3.59Z"/>
    <path class="cls-2" d="M200.59,126.68c.01.37.02.57-.19,1.01-.39.83-1.07,1.87-2.07,2.09l.55,2.54c1.13-.25,2.72-1.06,3.87-3.53.47-1.02.45-1.71.43-2.21-.02-.41-.02-.58.33-1.12.25-.38.32-.4.62-.47.67-.17,1.44-.44,2.12-1.66.77-1.39.54-2.56.38-3.41-.09-.47-.16-.84-.1-1.22.1-.58.52-1.02,1.31-1.81.43-.43.92-.92,1.41-1.53l-2.02-1.64c-.41.5-.83.92-1.23,1.33-.88.88-1.79,1.79-2.03,3.21-.15.85,0,1.57.1,2.15.15.76.2,1.12-.1,1.66-.18.33-.19.33-.46.4-.66.16-1.42.43-2.17,1.57-.74,1.14-.78,1.89-.75,2.63Z"/>
    <path class="cls-2" d="M196.07,131.03c1.26-1.08,1.65-1.47,2.25-3.29.39-1.18.32-1.97.25-2.6-.05-.5-.08-.86.1-1.51.09-.33.12-.34.49-.53.56-.29,1.49-.77,1.93-2.38.4-1.47-.02-2.41-.32-3.09-.24-.53-.38-.85-.24-1.55l-2.55-.5c-.29,1.49.12,2.42.41,3.1.24.54.34.78.19,1.37-.14.5-.23.55-.61.75-.52.27-1.4.72-1.8,2.14-.31,1.11-.24,1.85-.19,2.45.05.53.08.88-.14,1.55-.39,1.2-.43,1.24-1.46,2.12l-.61.53,1.71,1.96.59-.51Z"/>
    <path class="cls-2" d="M176.96,122.11c.27,1.31,1.2,1.89,1.87,2.32.61.39.82.55.9.96.13.64.07.82-.03,1.09-.19.54-.34,1.11-.07,2.09.46,1.72.98,2.3,2.69,4.06l1.86-1.81c-1.62-1.66-1.75-1.86-2.04-2.92-.08-.29-.07-.31.01-.55.2-.57.37-1.23.13-2.46-.3-1.53-1.35-2.2-2.05-2.65-.53-.34-.68-.46-.72-.66-.09-.41.02-.73.25-1.34.28-.75.62-1.68.48-3.01l-2.58.27c.08.73-.11,1.23-.33,1.84-.27.72-.6,1.62-.35,2.78Z"/>
    <path class="cls-2" d="M175.21,121.38c0-.46-.06-1-.26-1.65-.58-1.78-1.2-2.47-1.91-3.27l-.72-.84-2.03,1.63.8.94c.64.72.97,1.08,1.37,2.34.21.66.14,1.01.04,1.53-.14.67-.33,1.58.23,2.89.62,1.44,1.56,1.8,2.19,2.04.42.16.49.19.63.51.24.54.21.7.15.98-.08.37-.22.99.13,1.81.45,1.06,1.72,3.57,3.84,3.91l.41-2.57c-.52-.08-1.34-1.12-1.86-2.36l-.02-.06.04-.17c.06-.26.11-.53.11-.84,0-.47-.09-1.03-.42-1.77-.58-1.3-1.48-1.65-2.08-1.88-.45-.17-.55-.21-.73-.64-.12-.29-.17-.5-.17-.71,0-.18.04-.37.09-.62.07-.33.15-.73.16-1.21Z"/>
    <path class="cls-2" d="M191.98,136.79c-2.58,2.03-8.28,2.1-11.27-.69l-.63-.59-.79.35c-1.17.52-2.71.54-3.96.56-1.58.02-2.83.04-3.48,1.03-.47.72-.44,1.7.09,2.71.09.16.19.33.3.49l5.67.08c-2.11-.03-3.2-1.04-3.6-1.68.33-.02.73-.03,1.07-.03,1.25-.02,2.75-.07,4.17-.51,1.53,1.2,3.42,1.91,5.34,2.19,1.42-1.62,3.79-2.19,5.17-2.17l-.03,1.95c1.08-.27,2.08-.67,2.91-1.19,1.37.61,3.29,1.82,4.63,2.65,1.16.73,1.73,1.08,2.12,1.24,1.17.47,6.08.94,9.12.99l.04-2.6c-3.44-.05-7.55-.56-8.2-.8-.21-.09-1.03-.61-1.7-1.03-1.73-1.09-4.11-2.58-5.74-3.14l-.67-.23-.56.44Z"/>
    <path class="cls-2" d="M177.91,140.73l-5.67-.08-4.03-.06c-4.37-.06-4.87,2.61-4.88,3.54,0,.26.02.59.11.95l3.94.06c-1.16-.02-1.52-.48-1.51-.96,0-.49.46-1.01,2.31-.99l15.56.22c.1-1.06.49-1.91,1.04-2.58l-6.87-.1Z"/>
    <path class="cls-2" d="M186.36,143.45h.37s7.79-1.7,7.79-1.7l-4.42-.85h-.08s0,.22,0,.22c-.03,0-3.25.1-3.66,2.32Z"/>
    <path class="cls-2" d="M161.92,145.06c-2.51-.04-4.22,1.91-4.24,3.75-.02,1.75,1.5,3.89,4.26,3.93h.81c.2-.98,1.01-2.39,3.98-2.51v-.02l-4.75-.07c-.97-.01-1.68-.98-1.7-1.3,0-.34.49-1.19,1.61-1.18l16.89.24.04-2.6-11.43-.16-3.94-.06-1.52-.02Z"/>
    <path class="cls-2" d="M162.75,152.75c-.04.21-.06.4-.06.56-.03,2.13,1.82,3.89,5.03,3.94h.06c.51-1.43,2.3-2.42,4.66-2.52v-.02l-4.69-.07c-1.61-.02-2.48-.87-2.47-1.3,0-.37,1-.55,1.98-.54l11.43.16.04-2.6-11.43-.16c-.2,0-.39,0-.58,0-2.97.12-3.78,1.53-3.98,2.53Z"/>
    <path class="cls-2" d="M167.78,157.25c-.09.26-.15.53-.15.82-.02,1.63,1.41,3.42,4.67,3.74,2.36.23,12.55.7,14.42.72,1.52.02,7.91-.09,11.36-1.05,1.03-.29,1.89-.67,2.72-1.05,1.8-.8,3.66-1.64,7.68-1.58l.04-2.6c-4.59-.07-6.81.93-8.77,1.81-.78.35-1.51.68-2.35.91-2.9.8-8.81.98-10.63.95-1.72-.03-11.92-.49-14.2-.71-1.65-.16-2.33-.8-2.33-1.11.06-.16.86-.81,2.69-.78l10.47.15-2.47-2.63-7.96-.11c-.17,0-.34,0-.51,0-2.37.09-4.16,1.08-4.66,2.52Z"/>
    <path class="cls-2" d="M184.89,140.7s-.07.08-.11.13c-.55.68-.94,1.53-1.04,2.58-.01.14-.02.29-.03.44-.03,2.42,1.18,6.65,9.69,7.85l.36-2.57c-2.81-.39-7.51-1.6-7.46-5.24,0-.16.02-.3.04-.44.41-2.22,3.63-2.32,3.66-2.32v-.22s0-.43,0-.43l.03-1.95c-1.38-.02-3.75.55-5.17,2.17Z"/>
  </g>
</svg>